<?xml version="1.0" encoding="utf-8"?>
<!-- Generator: Adobe Illustrator 21.0.2, SVG Export Plug-In . SVG Version: 6.00 Build 0)  -->
<svg version="1.1" id="Layer_1" xmlns="http://www.w3.org/2000/svg" xmlns:xlink="http://www.w3.org/1999/xlink" x="0px" y="0px"
	 viewBox="0 0 128 128" style="enable-background:new 0 0 128 128;" xml:space="preserve">
<g>
	<path d="M13,113.6c6.1-0.6,9.9-1.7,11.4-3.5c1.5-1.8,2.2-6,2.2-12.6V28.7c0-5.6-0.8-9.2-2.5-11c-1.7-1.7-5.4-2.8-11.1-3.3v-2.9
		h43.9c9.1,0,16.8,1.2,22.9,3.5c11.6,4.4,17.4,12.5,17.4,24.2c0,7.9-2.6,14-7.7,18.2c-5.1,4.2-12.1,7-21,8.4l32.7,40.3
		c2,2.5,4,4.3,6,5.4c2,1.1,4.6,1.8,7.8,2.2v2.9H89.4L49.7,67.6l-7,0.4v31.3c0,5.9,0.9,9.6,2.7,11.2c1.8,1.6,5.7,2.6,11.7,3.1v2.9H13
		V113.6z M67.3,58.5c8.4-3.5,12.6-10,12.6-19.5c0-9.2-3.8-15.4-11.3-18.8c-4-1.8-9.4-2.7-16-2.7c-4.5,0-7.2,0.3-8.3,1
		c-1,0.6-1.5,2.2-1.5,4.5v39.1C54.2,61.7,62.3,60.5,67.3,58.5z"/>
</g>
</svg>
